:SAMPLES-PER-SECOND 30
:FRAME-RANGE 1-3358
:FULLY-SPECIFIED
:DEGREES
2624
root  40.7486 36.9755 17.1818 179.668 -32.6426 174.336
RightUpLeg  -15.283 -11.618 -12.5585
RightLeg  72.5792 2.45636 7.91269
RightFoot  4.6652 -2.71147 19.3457
RightToes  -5.8209e-011 0 -3.6325e-017
Spine  14.6513 4.66809 -1.36644
Spine1  -5.04949 5.53247 -11.4664
HEad  -0.202833 35.471 -2.27242
LeftShoulder1  0.398083 2.42533 -30.8117
LeftArm  -17.8343 16.5947 -20.7756
LeftForeArm  2.82155 0.116224 -15.0668
LeftHand  0.208644 1.03211 -5.7825
RightShoulder  7.31357 9.80131 48.1495
RightArm  2.20728 1.1052 11.7038
RightForeArm  -3.7221 8.13986 14.6699
RightHand  0.068986 5.94163 0.374859
LeftUpLeg  -18.4804 16.4972 -18.0494
LeftLeg  31.9861 15.3603 10.4938
LeftFoot  -15.9127 0.47171 9.39354
LeftToes  -4.03819e-010 -8.71445e-011 8.52097e-011
2625
root  40.5116 37.2803 16.2581 179.387 -35.3584 174.689
RightUpLeg  -18.8115 -8.93129 -13.0908
RightLeg  73.3693 -0.242119 -1.91842
RightFoot  3.91481 -1.83122 13.8134
RightToes  -5.8209e-011 0 -3.6325e-017
Spine  14.9401 3.72761 -1.51615
Spine1  -5.06971 4.47314 -10.8252
HEad  0.6632 35.9443 -3.71418
LeftShoulder1  0.541319 2.07572 -31.816
LeftArm  -17.1561 12.7689 -22.6149
LeftForeArm  3.2762 -0.996502 -15.1414
LeftHand  0.215763 0.776016 -5.5997
RightShoulder  6.99921 9.49068 47.1688
RightArm  3.94187 0.635667 11.8821
RightForeArm  -3.60673 8.2982 14.7488
RightHand  0.110936 6.22972 0.768129
LeftUpLeg  -15.5302 14.1492 -16.6522
LeftLeg  30.7009 15.1594 9.89635
LeftFoot  -16.2182 0.445369 8.15068
LeftToes  -4.03819e-010 -8.71445e-011 8.52097e-011
2626
root  40.1939 37.8191 15.3203 178.921 -38.9317 175.941
RightUpLeg  -20.572 -7.22382 -12.7457
RightLeg  69.1797 -2.963 -9.34524
RightFoot  2.84361 -0.83864 6.8883
RightToes  -5.8209e-011 0 -3.6325e-017
Spine  14.4623 2.70289 -1.46488
Spine1  -4.99023 3.2753 -8.77671
HEad  1.41163 35.6478 -4.57125
LeftShoulder1  0.689265 1.69433 -32.0098
LeftArm  -15.1403 9.14508 -25.8206
LeftForeArm  5.26889 -2.2499 -15.2354
LeftHand  0.246374 0.113022 -5.48076
RightShoulder  6.37917 8.60322 46.1215
RightArm  7.27473 -0.44035 11.6512
RightForeArm  -6.04164 9.69413 14.4481
RightHand  0.101954 6.139 0.688919
LeftUpLeg  -11.6694 11.5152 -14.1979
LeftLeg  27.0362 14.6127 7.47068
LeftFoot  -15.7478 0.374827 7.26874
LeftToes  -4.03819e-010 -8.71445e-011 8.52097e-011
2627
root  39.8347 38.3828 14.3872 178.931 -42.9328 177.573
RightUpLeg  -20.9857 -6.09654 -12.1567
RightLeg  60.5053 -5.96351 -11.7448
RightFoot  0.743089 -0.553878 5.27613
RightToes  -5.8209e-011 0 -3.6325e-017
Spine  13.1731 1.75025 -1.65732
Spine1  -4.9567 2.07561 -6.04274
HEad  1.92521 34.7368 -4.57262
LeftShoulder1  0.80899 1.38243 -32.0584
LeftArm  -12.426 5.63452 -29.1771
LeftForeArm  7.23205 -3.76642 -15.174
LeftHand  0.271771 -0.748239 -5.09294
RightShoulder  5.35829 6.84061 45.3265
RightArm  14.169 -2.00311 11.1296
RightForeArm  -13.2781 13.5727 12.8583
RightHand  0.0482768 5.49144 0.195966
LeftUpLeg  -8.49684 8.15335 -11.4626
LeftLeg  22.8376 14.0395 4.55692
LeftFoot  -15.0682 0.300251 6.43504
LeftToes  -4.03819e-010 -8.71445e-011 8.52097e-011
2628
root  39.4547 38.8692 13.4903 179.15 -47.0624 179.152
RightUpLeg  -19.8886 -5.05888 -11.5917
RightLeg  47.9561 -9.18324 -11.0484
RightFoot  -0.489184 -0.682998 7.14559
RightToes  -5.8209e-011 0 -3.6325e-017
Spine  11.9665 0.921667 -1.8418
Spine1  -5.42247 1.02598 -3.5765
HEad  2.58715 33.4206 -3.89237
LeftShoulder1  0.90643 1.13731 -32.2299
LeftArm  -8.83565 2.24842 -31.841
LeftForeArm  6.96995 -5.87104 -14.9098
LeftHand  0.30392 -1.4124 -5.07724
RightShoulder  4.0189 4.39467 44.5127
RightArm  22.1911 -4.21415 10.6619
RightForeArm  -22.2958 18.7573 9.40318
RightHand  0.0383586 5.01607 0.123274
LeftUpLeg  -5.83111 5.32598 -9.05468
LeftLeg  18.3693 12.7414 1.92457
LeftFoot  -14.6806 0.229084 4.82825
LeftToes  -4.03819e-010 -8.71445e-011 8.52097e-011
2629
root  39.0232 39.2024 12.5787 179.153 -51.2997 -179.564
RightUpLeg  -17.119 -4.62106 -11.2653
RightLeg  33.2205 -11.2011 -8.02893
RightFoot  -1.69356 -0.804157 9.37141
RightToes  -5.8209e-011 0 -3.6325e-017
Spine  10.6891 0.110483 -2.0083
Spine1  -5.29896 0.00754056 -1.35232
HEad  3.09763 31.9875 -3.27771
LeftShoulder1  1.03947 0.806209 -32.4654
LeftArm  -6.7858 -0.850863 -33.8177
LeftForeArm  7.25966 -7.97553 -14.2036
LeftHand  0.346415 -2.17182 -5.1511
RightShoulder  2.62144 1.75508 43.619
RightArm  24.1489 -6.63977 10.1247
RightForeArm  -26.4827 23.8921 6.34619
RightHand  0.0408482 4.77296 0.169743
LeftUpLeg  -3.31969 4.66816 -7.04734
LeftLeg  14.756 9.07667 -0.109972
LeftFoot  -14.5305 0.190049 3.68921
LeftToes  -4.03819e-010 -8.71445e-011 8.52097e-011
2630
root  38.5424 39.3239 11.6104 178.922 -55.0225 -179.004
RightUpLeg  -13.4374 -3.24853 -11.2992
RightLeg  19.693 -10.0157 -4.15351
RightFoot  -2.87519 -0.917273 12.0851
RightToes  -5.8209e-011 0 -3.6325e-017
Spine  9.75062 -0.597933 -2.3904
Spine1  -4.68415 -0.924968 0.282394
HEad  3.39188 31.0334 -3.14573
LeftShoulder1  1.11433 0.613761 -32.4929
LeftArm  -3.11967 -3.18153 -34.82
LeftForeArm  5.1201 -11.383 -12.7674
LeftHand  0.366619 -2.75225 -5.02322
RightShoulder  1.47605 -0.486218 42.9146
RightArm  16.8208 -8.79558 9.31736
RightForeArm  -21.447 28.5379 7.2291
RightHand  0.0159454 4.41432 -0.0955806
LeftUpLeg  -1.13535 4.8207 -5.68983
LeftLeg  13.312 5.1506 -0.909801
LeftFoot  -14.9401 0.192786 3.27885
LeftToes  -4.03819e-010 -8.71445e-011 8.52097e-011
2631
root  38.0668 39.2536 10.6405 178.835 -57.1059 -179.225
RightUpLeg  -10.7894 -2.85049 -10.7345
RightLeg  10.8835 -4.29626 -1.78362
RightFoot  -2.33213 -1.20405 15.0006
RightToes  -5.8209e-011 0 -3.6325e-017
Spine  9.50381 -0.81091 -2.51922
Spine1  -4.36127 -1.23324 0.914194
HEad  3.55197 30.2914 -3.74272
LeftShoulder1  1.13859 0.554065 -32.5357
LeftArm  2.71595 -4.68917 -34.5622
LeftForeArm  0.122814 -15.8508 -10.1769
LeftHand  0.343107 -3.00262 -4.52777
RightShoulder  0.683624 -2.07989 42.5553
RightArm  10.7376 -10.3368 8.53553
RightForeArm  -17.6855 33.4893 8.37971
RightHand  -0.0463575 4.05458 -0.840724
LeftUpLeg  0.260189 5.24926 -4.89729
LeftLeg  14.3541 2.59383 -0.76211
LeftFoot  -16.4807 0.21538 2.59362
LeftToes  -4.03819e-010 -8.71445e-011 8.52097e-011
2632
root  37.5897 39.1883 9.73739 177.748 -57.7786 -178.488
RightUpLeg  -11.0155 -1.58791 -9.4468
RightLeg  13.3206 -3.46395 -1.62727
RightFoot  -1.49516 -1.06309 12.1802
RightToes  -5.8209e-011 0 -3.6325e-017
Spine  9.85197 -0.797262 -0.863226
Spine1  -4.15065 -1.10716 0.933859
HEad  3.84034 30.3441 -4.37637
LeftShoulder1  1.1116 0.63033 -32.6193
LeftArm  7.2522 -5.34491 -33.0706
LeftForeArm  -4.94051 -20.4383 -6.74541
LeftHand  0.306165 -3.14405 -3.9388
RightShoulder  0.333827 -2.79647 42.7795
RightArm  6.35132 -10.6547 7.63946
RightForeArm  -14.7704 38.0049 9.59627
RightHand  -0.0885983 3.77825 -1.38205
LeftUpLeg  1.49446 5.25061 -3.96895
LeftLeg  15.8223 1.70424 0.326973
LeftFoot  -17.7721 0.179747 1.30098
LeftToes  -4.03819e-010 -8.71445e-011 8.52097e-011
2633
root  37.1448 38.8537 8.89216 175.847 -57.7878 -176.868
RightUpLeg  -11.9276 0.693958 -8.1072
RightLeg  19.1509 -5.19835 -2.21395
RightFoot  -4.8788 -0.729935 12.2942
RightToes  -5.8209e-011 0 -3.6325e-017
Spine  10.8377 -0.90921 1.77153
Spine1  -4.42079 -0.865519 0.215204
HEad  4.69323 30.9115 -5.41745
LeftShoulder1  1.06798 0.745724 -32.6545
LeftArm  5.21532 -5.12379 -30.9549
LeftForeArm  -4.26139 -24.09 -5.36351
LeftHand  0.219506 -2.97932 -2.82614
RightShoulder  0.465032 -2.53224 42.8732
RightArm  3.51148 -9.47776 7.26276
RightForeArm  -12.322 40.6802 10.3608
RightHand  -0.146955 3.63451 -2.14482
LeftUpLeg  0.628867 5.25475 -2.35661
LeftLeg  21.655 1.68456 1.07659
LeftFoot  -20.4078 0.134267 0.148887
LeftToes  -4.03819e-010 -8.71445e-011 8.52097e-011
2634
root  36.6727 38.524 8.1696 174.452 -58.1193 -175.495
RightUpLeg  -12.4742 -1.3088 -6.98704
RightLeg  23.6062 -3.23888 -1.76934
RightFoot  -8.34299 -0.384478 12.4686
RightToes  -5.8209e-011 0 -3.6325e-017
Spine  11.3316 -1.12925 3.87171
Spine1  -4.14238 -0.840079 0.470756
HEad  5.25176 31.425 -6.7235
LeftShoulder1  1.05215 0.77199 -32.4475
LeftArm  0.153314 -4.5502 -29.549
LeftForeArm  -0.811555 -26.6706 -5.77613
LeftHand  0.168612 -2.71908 -2.20807
RightShoulder  1.01968 -1.38326 42.3168
RightArm  1.62002 -7.82883 7.18848
RightForeArm  -10.2474 42.6062 10.9368
RightHand  -0.165544 3.58312 -2.39405
LeftUpLeg  -2.48092 6.17827 -0.545005
LeftLeg  30.8414 1.3442 1.21948
LeftFoot  -21.0579 -0.204745 -3.89342
LeftToes  -4.03819e-010 -8.71445e-011 8.52097e-011
2635
root  36.2185 38.2384 7.50617 172.972 -59.7145 -173.888
RightUpLeg  -12.2388 -3.59893 -6.04208
RightLeg  26.7541 -2.36779 -1.5312
RightFoot  -11.5221 -0.0588197 12.4668
RightToes  -5.8209e-011 0 -3.6325e-017
Spine  11.3713 -1.3939 5.33542
Spine1  -3.61213 -0.971157 1.73398
HEad  6.29903 30.6298 -7.24426
LeftShoulder1  1.09776 0.649051 -32.3887
LeftArm  -1.82886 -4.85687 -28.9035
LeftForeArm  0.301576 -28.0595 -6.04543
LeftHand  0.117794 -2.40215 -1.56546
RightShoulder  1.50102 -0.383076 42.1378
RightArm  0.412193 -6.35085 6.66632
RightForeArm  -8.01299 44.4267 11.5019
RightHand  -0.168353 3.64111 -2.4187
LeftUpLeg  -7.37918 7.14429 1.44135
LeftLeg  41.786 0.818093 1.17392
LeftFoot  -17.6645 -0.431716 -9.71034
LeftToes  -4.03819e-010 -8.71445e-011 8.52097e-011
2636
root  35.7366 38.054 6.91103 171.772 -61.0147 -172.486
RightUpLeg  -11.6331 -4.22541 -5.17119
RightLeg  28.682 -2.77474 -1.88762
RightFoot  -13.9204 0.189264 12.5751
RightToes  -5.8209e-011 0 -3.6325e-017
Spine  11.5897 -1.43023 7.04778
Spine1  -3.67047 -0.712717 1.90675
HEad  8.13583 29.5108 -6.75266
LeftShoulder1  1.10017 0.632621 -32.253
LeftArm  -2.13982 -5.10425 -28.9699
LeftForeArm  0.943111 -28.9982 -6.23778
LeftHand  0.0893106 -2.17509 -1.19348
RightShoulder  1.83084 0.297672 42.1296
RightArm  -0.14619 -5.40224 6.76554
RightForeArm  -5.52749 45.8381 11.9182
RightHand  -0.188177 3.87461 -2.62142
LeftUpLeg  -12.7354 8.33159 3.00876
LeftLeg  51.0985 1.11705 1.93908
LeftFoot  -10.1607 0.191605 -12.667
LeftToes  -4.03819e-010 -8.71445e-011 8.52097e-011
